<svg width="16" height="21" viewBox="0 0 16 21" fill="none" xmlns="http://www.w3.org/2000/svg">
<path d="M6.21094 7.4209H9.80497V11.0686H6.21094V7.4209Z" fill="#FFE2D1"/>
<path d="M9.82272 11.3806H6.21124C6.01933 11.3806 5.8623 11.2403 5.8623 11.0688V7.42114C5.8623 7.24967 6.01933 7.10938 6.21124 7.10938H9.80527C9.99719 7.10938 10.1542 7.24967 10.1542 7.42114V11.0688C10.1717 11.2403 10.0146 11.3806 9.82272 11.3806ZM6.56017 10.7571H9.45634V7.73291H6.56017V10.7571Z" fill="#131313"/>
<path d="M7.90377 4.70848L4.88548 3.24316C4.85059 3.38346 4.85059 3.53934 4.85059 3.67964V6.56351C4.85059 8.13794 6.28122 9.43178 8.06079 9.43178C9.82291 9.43178 11.271 8.15353 11.271 6.56351V5.3632L7.90377 3.55493V4.70848Z" fill="#FFE2D1"/>
<path d="M8.04254 9.7282C6.0885 9.7282 4.4834 8.30965 4.4834 6.54815V3.67988C4.4834 3.5084 4.50084 3.35252 4.53574 3.19664C4.55319 3.1031 4.62297 3.00957 4.72765 2.96281C4.83233 2.91604 4.95446 2.91604 5.04169 2.96281L7.53658 4.17871V3.55517C7.53658 3.44605 7.60637 3.33693 7.71105 3.29017C7.81573 3.22781 7.9553 3.2434 8.05998 3.29017L11.4272 5.09843C11.5319 5.16078 11.6017 5.25431 11.6017 5.36343V6.56374C11.6017 8.30965 10.014 9.7282 8.04254 9.7282ZM5.19872 3.74223V6.56374C5.19872 7.9667 6.47233 9.12025 8.05998 9.12025C9.64764 9.12025 10.9213 7.98229 10.9213 6.56374V5.5349L8.2519 4.10077V4.70872C8.2519 4.81784 8.18211 4.92695 8.07743 4.97372C7.97275 5.03607 7.83318 5.03607 7.72849 4.97372L5.19872 3.74223Z" fill="#131313"/>
<path d="M8.04263 0.811523C6.47242 0.811523 5.12902 1.84036 4.88477 3.24332L7.90305 4.70864V3.55509L11.2703 5.34777V3.6798C11.2528 2.08978 9.8222 0.811523 8.04263 0.811523Z" fill="#B08A77"/>
<path d="M11.2529 5.67537C11.1831 5.67537 11.1307 5.65978 11.0784 5.6286L8.25202 4.11652V4.70889C8.25202 4.818 8.18223 4.92712 8.07755 4.97389C7.97287 5.03624 7.83329 5.03624 7.72861 4.97389L4.71032 3.50857C4.5882 3.44622 4.51841 3.32151 4.53586 3.18122C4.815 1.63796 6.28053 0.5 8.04265 0.5C9.99669 0.5 11.6018 1.91855 11.6018 3.68005V5.3636C11.6018 5.47272 11.532 5.58184 11.4273 5.6286C11.375 5.65978 11.3052 5.67537 11.2529 5.67537ZM7.90308 3.24357C7.97287 3.24357 8.02521 3.25916 8.07755 3.29034L10.9039 4.80242V3.66446C10.9039 2.97857 10.6073 2.33944 10.0665 1.8562C9.52563 1.38854 8.81031 1.12354 8.04265 1.12354C6.7167 1.12354 5.58266 1.93414 5.26862 3.0721L7.5367 4.17888V3.55534C7.5367 3.44622 7.60649 3.3371 7.71117 3.29034C7.78095 3.25916 7.83329 3.24357 7.90308 3.24357Z" fill="#131313"/>
<path d="M12.1426 11.0537H10.869L11.9682 13.9532L10.7818 14.7794V15.9173L8.04265 18.3647L5.32096 15.8705V14.7326L4.13458 13.9064L5.23372 11.0537H3.85543C1.91884 11.0537 0.348633 12.4723 0.348633 14.2026V20.1885H15.6669V14.2026C15.6669 12.4723 14.0967 11.0693 12.1426 11.0537Z" fill="#6591C2"/>
<path d="M15.6672 20.4996H0.348935C0.157021 20.4996 -2.18596e-08 20.3593 0 20.1879V14.2019C0 12.3001 1.72723 10.7568 3.85573 10.7568H5.23403C5.33871 10.7568 5.46083 10.8036 5.51317 10.8815C5.56551 10.9595 5.60041 11.0686 5.56551 11.1621L4.5536 13.8122L5.53062 14.4981C5.61785 14.5604 5.6702 14.654 5.6702 14.7475V15.7451L8.04295 17.9119L10.4332 15.7763V14.7787C10.4332 14.6851 10.4855 14.5916 10.5727 14.5292L11.5498 13.8434L10.5378 11.1621C10.5029 11.0686 10.5204 10.9595 10.5902 10.8815C10.66 10.8036 10.7646 10.7568 10.8693 10.7568H12.1429C13.1723 10.7568 14.1493 11.1154 14.8646 11.7701C15.5974 12.4248 15.9987 13.2822 15.9987 14.2019V20.1879C16.0161 20.3593 15.8591 20.4996 15.6672 20.4996ZM0.69787 19.8761H15.3182V14.2019C15.3182 13.4536 14.9868 12.7366 14.3936 12.2066C13.8004 11.6766 12.9978 11.3804 12.1604 11.3804H11.3578L12.3 13.8589C12.3523 13.9836 12.3 14.1239 12.1778 14.2019L11.131 14.919V15.901C11.131 15.979 11.0961 16.0569 11.0263 16.1193L8.28721 18.5667C8.21742 18.629 8.13019 18.6602 8.04295 18.6602C7.95572 18.6602 7.86849 18.629 7.7987 18.5667L5.07701 16.0881C5.00722 16.0257 4.97232 15.9478 4.97232 15.8699V14.8878L3.92552 14.1707C3.80339 14.0928 3.7685 13.9525 3.80339 13.8278L4.74552 11.3804H3.85573C2.11106 11.3804 0.69787 12.643 0.69787 14.2019V19.8761Z" fill="#131313"/>
<path d="M5.32128 14.7482V15.8705L8.04297 18.3491L10.7821 15.9017V14.7794L11.9685 13.9532L10.8693 11.0537H5.23404L4.15234 13.922L5.32128 14.7482Z" fill="#9BC7F6"/>
<path d="M8.0434 18.6601C7.95617 18.6601 7.85149 18.629 7.79915 18.5666L5.07745 16.0881C5.00767 16.0257 4.97277 15.9478 4.97277 15.8698V14.8877L3.92597 14.1707C3.80384 14.0927 3.76895 13.9524 3.80384 13.8277L4.88554 10.9594C4.93788 10.8347 5.06001 10.7412 5.21703 10.7412H10.8523C11.0093 10.7412 11.1315 10.8192 11.1838 10.9594L12.283 13.8589C12.3353 13.9836 12.283 14.1239 12.1608 14.2018L11.114 14.9189V15.901C11.114 15.9789 11.0791 16.0569 11.0093 16.1192L8.27021 18.5666C8.23532 18.629 8.14808 18.6601 8.0434 18.6601ZM5.67064 15.7451L8.0434 17.8963L10.4336 15.7763V14.7786C10.4336 14.6851 10.4859 14.5916 10.5732 14.5292L11.5502 13.8433L10.6081 11.3647H5.47873L4.55405 13.8121L5.53107 14.498C5.6183 14.5604 5.67064 14.6539 5.67064 14.7474V15.7451Z" fill="#131313"/>
<path d="M6.94416 11.0537H5.23438L7.13607 15.9953L7.92117 12.597L6.94416 11.0537Z" fill="white"/>
<path d="M7.13527 16.3063C6.99569 16.3063 6.85612 16.2284 6.80378 16.1037L4.88463 11.1621C4.84974 11.0686 4.86719 10.9595 4.93697 10.8815C5.00676 10.8036 5.11144 10.7568 5.21612 10.7568H6.9259C7.04803 10.7568 7.17016 10.8192 7.2225 10.9127L8.19952 12.456C8.23441 12.5183 8.25186 12.5963 8.23441 12.6742L7.44931 16.0725C7.41441 16.2128 7.29229 16.3063 7.13527 16.3219C7.15271 16.3063 7.15271 16.3063 7.13527 16.3063ZM5.72208 11.3804L7.06548 14.841L7.55399 12.6586L6.73399 11.3804H5.72208Z" fill="#131313"/>
<path d="M8.89812 16.1355L10.8696 11.0537H9.07259L8.07812 12.597L8.89812 16.1355Z" fill="white"/>
<path d="M8.89759 16.4466H8.88014C8.72312 16.431 8.60099 16.3375 8.5661 16.1972L7.7461 12.6586C7.72866 12.5806 7.7461 12.5027 7.781 12.4404L8.75801 10.8971C8.8278 10.8036 8.93248 10.7412 9.05461 10.7412H10.8516C10.9563 10.7412 11.0784 10.788 11.1308 10.8659C11.2006 10.9439 11.218 11.053 11.1831 11.1465L9.22908 16.2439C9.17674 16.3686 9.05461 16.4466 8.89759 16.4466ZM8.46142 12.6586L9.00227 14.9813L10.398 11.3803H9.29886L8.46142 12.6586Z" fill="#131313"/>
<path d="M9.07186 11.0537H6.94336L7.92038 12.597L7.13527 15.9953L7.72846 17.5229L8.0425 18.3491L8.37399 17.5229L8.8974 16.1355L8.0774 12.597L9.07186 11.0537Z" fill="#2B3038"/>
<path d="M8.04268 18.6601C7.88565 18.6601 7.76353 18.5822 7.71119 18.4575L6.80396 16.1036C6.78651 16.0569 6.78651 15.9945 6.78651 15.9322L7.55417 12.6586L6.62949 11.2089C6.5597 11.1153 6.5597 10.9906 6.62949 10.8971C6.69928 10.8036 6.80396 10.7412 6.92608 10.7412H9.07203C9.19416 10.7412 9.31629 10.8036 9.36863 10.8971C9.43842 10.9906 9.43842 11.1153 9.36863 11.2089L8.4614 12.6586L9.2465 16.0881C9.26395 16.1504 9.2465 16.1972 9.22906 16.2595L8.37416 18.4575C8.32182 18.5822 8.1997 18.6601 8.04268 18.6601ZM7.50183 15.9789L8.04268 17.3975L8.53119 16.1192L7.99034 13.7965L7.50183 15.9789ZM7.53672 11.3803L8.00778 12.0974L8.47884 11.3803H7.53672Z" fill="#131313"/>
<path d="M8.04327 20.5001C7.85136 20.5001 7.69434 20.3598 7.69434 20.1883V18.3489C7.69434 18.1774 7.85136 18.0371 8.04327 18.0371C8.23519 18.0371 8.39221 18.1774 8.39221 18.3489V20.1883C8.39221 20.3598 8.23519 20.5001 8.04327 20.5001Z" fill="#131313"/>
<path d="M13.6087 20.5001C13.4168 20.5001 13.2598 20.3598 13.2598 20.1883V15.0286C13.2598 14.8571 13.4168 14.7168 13.6087 14.7168C13.8006 14.7168 13.9576 14.8571 13.9576 15.0286V20.1883C13.9576 20.3598 13.8006 20.5001 13.6087 20.5001Z" fill="#131313"/>
<path d="M2.40753 20.5001C2.21561 20.5001 2.05859 20.3598 2.05859 20.1883V15.0286C2.05859 14.8571 2.21561 14.7168 2.40753 14.7168C2.59944 14.7168 2.75646 14.8571 2.75646 15.0286V20.1883C2.75646 20.3598 2.59944 20.5001 2.40753 20.5001Z" fill="#131313"/>
</svg>
