<svg width="20" height="21" viewBox="0 0 20 21" fill="none" xmlns="http://www.w3.org/2000/svg">
<path d="M12.1116 14.7014C12.2977 13.5634 13.4512 12.4411 13.8233 12.1293C16.0372 10.3366 16.093 7.3904 13.9535 5.53538C11.814 3.68035 8.27907 3.63358 6.06512 5.42626C3.85117 7.21893 3.79535 10.1807 5.93489 12.0358L6.06512 12.1449C6.43721 12.4411 7.5907 13.5634 7.77675 14.717C7.81396 15.0599 7.85116 15.4029 7.83256 15.7302H12.0372C12.0558 15.3873 12.0744 15.0443 12.1116 14.7014Z" fill="#FFECBA"/>
<path d="M12.056 16.042H7.83274C7.73971 16.042 7.64669 16.0108 7.57227 15.9485C7.49785 15.8861 7.46064 15.8082 7.46064 15.7302C7.46064 15.4029 7.44204 15.0755 7.40483 14.7482C7.23739 13.7349 6.19553 12.6905 5.80483 12.3631L5.6746 12.254C4.55832 11.3031 3.96297 10.0404 4.00018 8.69983C4.03739 7.35922 4.66995 6.12773 5.80483 5.19243C6.93971 4.25712 8.44669 3.75829 10.0467 3.78946C11.6281 3.80505 13.1165 4.35065 14.2327 5.30154C15.349 6.25244 15.9444 7.51511 15.9072 8.85571C15.8885 10.1807 15.2374 11.4278 14.1025 12.3631C13.7304 12.6593 12.6699 13.7193 12.5025 14.7482C12.4653 15.0755 12.4281 15.4029 12.4467 15.7302C12.4467 15.8082 12.4095 15.8861 12.3351 15.9485C12.242 16.0108 12.149 16.042 12.056 16.042ZM8.20483 15.4185H11.6839C11.6839 15.169 11.7211 14.9196 11.7397 14.6702C11.9816 13.2205 13.5444 11.9422 13.563 11.9266C14.5676 11.116 15.1258 10.0248 15.1444 8.85571C15.163 7.68658 14.642 6.5798 13.6746 5.75361C12.7072 4.91183 11.4048 4.44418 10.0095 4.42859C8.63274 4.39741 7.31181 4.83389 6.32576 5.64449C5.32111 6.45509 4.76297 7.54628 4.74437 8.71542C4.72576 9.88455 5.24669 10.9913 6.21413 11.8175L6.32576 11.9111C6.34437 11.9266 7.90716 13.2205 8.14902 14.6546C8.18623 14.9196 8.20483 15.169 8.20483 15.4185Z" fill="black"/>
<path d="M7.81391 18.1301C7.75809 19.1745 8.68833 20.0786 9.95344 20.1878C11.2 20.0942 12.1488 19.1901 12.093 18.1301C12.093 17.3507 12.0558 16.4621 12.0558 15.7139H7.83251C7.85112 16.4621 7.81391 17.3507 7.81391 18.1301Z" fill="#B2DAF6"/>
<path d="M9.95364 20.4998H9.91643C8.46527 20.3907 7.3862 19.3463 7.44201 18.1304C7.44201 17.7718 7.44201 17.3977 7.46062 17.0392C7.46062 16.6027 7.47922 16.135 7.47922 15.7297C7.47922 15.6518 7.51643 15.5739 7.59085 15.5115C7.66527 15.4491 7.75829 15.418 7.85131 15.418H12.0746C12.1676 15.418 12.2606 15.4491 12.335 15.5115C12.4095 15.5739 12.4467 15.6518 12.4467 15.7297C12.4467 16.1194 12.4467 16.5715 12.4653 17.008C12.4653 17.3821 12.4839 17.7718 12.4839 18.1304C12.5397 19.3463 11.4606 20.3907 9.99085 20.4998H9.95364ZM8.2048 16.0415C8.2048 16.3689 8.2048 16.7118 8.1862 17.0392C8.1862 17.4133 8.16759 17.7874 8.16759 18.1304V18.146C8.13038 19.0189 8.89317 19.7671 9.93503 19.8763C10.9769 19.7827 11.7583 19.0345 11.7025 18.146C11.7025 17.7718 11.7025 17.3977 11.6839 17.0236C11.6839 16.6962 11.6653 16.3533 11.6653 16.0415H8.2048Z" fill="black"/>
<path d="M12.8373 16.0415H6.88381C6.67916 16.0415 6.51172 15.9012 6.51172 15.7297C6.51172 15.5583 6.67916 15.418 6.88381 15.418H12.8373C13.042 15.418 13.2094 15.5583 13.2094 15.7297C13.2094 15.9012 13.042 16.0415 12.8373 16.0415ZM12.0931 17.3198H7.81404C7.60939 17.3198 7.44195 17.1795 7.44195 17.008C7.44195 16.8365 7.60939 16.6962 7.81404 16.6962H12.0931C12.2978 16.6962 12.4652 16.8365 12.4652 17.008C12.4652 17.1795 12.2978 17.3198 12.0931 17.3198ZM12.0931 18.4577H7.81404C7.60939 18.4577 7.44195 18.3174 7.44195 18.146C7.44195 17.9745 7.60939 17.8342 7.81404 17.8342H12.0931C12.2978 17.8342 12.4652 17.9745 12.4652 18.146C12.4652 18.3174 12.2978 18.4577 12.0931 18.4577Z" fill="black"/>
<path d="M9.22791 16.0417C9.02326 16.0417 8.85581 15.9014 8.85581 15.7299C8.85581 15.6987 8.8 12.9084 8.8 11.6458H8.70698C8.24186 11.6458 7.90698 11.5366 7.68372 11.334C7.47907 11.1625 7.38605 10.9131 7.40465 10.6169C7.42326 10.3675 7.57209 9.80631 8.57674 9.80631C8.87442 9.80631 9.11628 9.86867 9.26512 10.009C9.54418 10.2428 9.54419 10.5857 9.52558 10.991V11.0066H10.2698V10.7884C10.2698 10.1648 10.6977 9.8219 11.4605 9.8219C11.7767 9.8219 12.0372 9.93102 12.2233 10.1181C12.3721 10.274 12.4651 10.4922 12.4651 10.7104C12.4651 11.1781 12.093 11.6613 11.4233 11.6613H11.014V15.7299C11.014 15.9014 10.8465 16.0417 10.6419 16.0417C10.4372 16.0417 10.2698 15.9014 10.2698 15.7299V11.6613H9.52558C9.54419 12.9084 9.58139 15.6987 9.58139 15.7299C9.6 15.9014 9.45116 16.0417 9.22791 16.0417ZM11.0326 11.0378H11.4419C11.6837 11.0378 11.7395 10.804 11.7395 10.7104C11.7395 10.6325 11.7209 10.5546 11.6651 10.5078C11.6465 10.4766 11.5907 10.4454 11.4791 10.4454C11.0884 10.4454 11.0326 10.5234 11.0326 10.7884V11.0378ZM8.57674 10.4454C8.16744 10.4454 8.16744 10.5546 8.14884 10.6793C8.14884 10.7884 8.16744 10.8819 8.22326 10.9287C8.29767 10.991 8.48372 11.0378 8.70698 11.0378H8.8V11.0222C8.8 10.8196 8.8 10.5234 8.74419 10.4766C8.72558 10.461 8.68837 10.4454 8.57674 10.4454ZM5.82326 9.0113C5.6186 9.0113 5.45116 8.871 5.45116 8.69953C5.45116 6.76656 7.34884 5.17654 9.67442 5.17654C9.87907 5.17654 10.0465 5.31683 10.0465 5.48831C10.0465 5.65978 9.87907 5.80008 9.67442 5.80008C7.75814 5.80008 6.19535 7.10951 6.19535 8.69953C6.19535 8.871 6.02791 9.0113 5.82326 9.0113ZM1.63721 9.18277H0.372093C0.167442 9.18277 0 9.04248 0 8.871C0 8.69953 0.167442 8.55923 0.372093 8.55923H1.63721C1.84186 8.55923 2.0093 8.69953 2.0093 8.871C2.0093 9.04248 1.84186 9.18277 1.63721 9.18277ZM19.6279 9.18277H18.3628C18.1581 9.18277 17.9907 9.04248 17.9907 8.871C17.9907 8.69953 18.1581 8.55923 18.3628 8.55923H19.6279C19.8326 8.55923 20 8.69953 20 8.871C20 9.04248 19.8326 9.18277 19.6279 9.18277ZM10.0093 2.16797C9.80465 2.16797 9.63721 2.02767 9.63721 1.8562V0.811769C9.63721 0.640296 9.80465 0.5 10.0093 0.5C10.214 0.5 10.3814 0.640296 10.3814 0.811769V1.87178C10.3814 2.04326 10.214 2.16797 10.0093 2.16797Z" fill="black"/>
<path d="M3.53465 4.50655C3.44162 4.50655 3.3486 4.47537 3.27418 4.41302L2.38116 3.66477C2.23232 3.54007 2.23232 3.353 2.38116 3.2283C2.53 3.10359 2.75325 3.10359 2.90209 3.2283L3.79511 3.97654C3.94395 4.10125 3.94395 4.28831 3.79511 4.41302C3.72069 4.47537 3.62767 4.50655 3.53465 4.50655Z" fill="black"/>
<path d="M16.2788 4.50655C16.1858 4.50655 16.0928 4.47537 16.0184 4.41302C15.8695 4.28831 15.8695 4.10125 16.0184 3.97654L16.9114 3.2283C17.0602 3.10359 17.2835 3.10359 17.4323 3.2283C17.5812 3.353 17.5812 3.54007 17.4323 3.66477L16.5393 4.41302C16.4649 4.47537 16.3719 4.50655 16.2788 4.50655Z" fill="black"/>
</svg>
