<svg width="12" height="21" viewBox="0 0 12 21" fill="none" xmlns="http://www.w3.org/2000/svg">
<path d="M0.715196 0.810547H11.2855C11.5237 0.810547 11.7023 1.0121 11.7023 1.24466V1.67876C11.7023 1.92683 11.5088 2.11287 11.2855 2.11287H0.715196C0.49188 2.12838 0.29834 1.92683 0.29834 1.69427V1.24466C0.29834 1.0121 0.49188 0.810547 0.715196 0.810547Z" fill="#C3A494"/>
<path d="M11.2849 2.43798H0.714611C0.32753 2.43798 0 2.0969 0 1.6938V1.24419C0 0.841085 0.32753 0.5 0.714611 0.5H11.2849C11.6869 0.5 11.9995 0.841085 11.9995 1.24419V1.67829C12.0144 2.0969 11.6869 2.43798 11.2849 2.43798ZM0.714611 1.12016C0.65506 1.12016 0.595509 1.18217 0.595509 1.24419V1.67829C0.595509 1.75581 0.65506 1.80233 0.714611 1.80233H11.2849C11.3593 1.80233 11.404 1.74031 11.404 1.67829V1.24419C11.404 1.16667 11.3444 1.12016 11.2849 1.12016H0.714611Z" fill="#131313"/>
<path d="M11.0612 2.12793H1.08643V4.68607C1.08643 5.39925 1.22042 6.09692 1.50328 6.74808H10.6592C10.9272 6.09692 11.0761 5.39925 11.0761 4.68607V2.12793H11.0612Z" fill="#D9EFFF"/>
<path d="M10.6462 7.05867H1.49025C1.37115 7.05867 1.26693 6.98115 1.22227 6.87262C0.924517 6.17495 0.790527 5.44627 0.790527 4.68658V2.12844C0.790527 1.95789 0.924517 1.81836 1.08828 1.81836H11.0631C11.2268 1.81836 11.3608 1.95789 11.3608 2.12844V4.68658C11.3608 5.44627 11.2119 6.17495 10.9142 6.87262C10.8695 6.99665 10.7653 7.05867 10.6462 7.05867ZM1.68379 6.43851H10.4378C10.6462 5.88037 10.7504 5.29123 10.7504 4.68658V2.43851H1.37115V4.68658C1.37115 5.29123 1.47536 5.88037 1.68379 6.43851Z" fill="#131313"/>
<path d="M0.715196 18.8721H11.2855C11.5237 18.8721 11.7023 19.0736 11.7023 19.3062V19.7403C11.7023 19.9883 11.5088 20.1744 11.2855 20.1744H0.715196C0.476993 20.1744 0.29834 19.9728 0.29834 19.7403V19.3062C0.29834 19.0736 0.49188 18.8721 0.715196 18.8721Z" fill="#C3A494"/>
<path d="M11.2849 20.4996H0.714611C0.312642 20.4996 -1.8755e-08 20.1585 0 19.7554V19.3213C0 18.9027 0.32753 18.5771 0.714611 18.5771H11.2849C11.6869 18.5771 11.9995 18.9182 11.9995 19.3213V19.7554C12.0144 20.174 11.6869 20.4996 11.2849 20.4996ZM0.714611 19.1818C0.640172 19.1818 0.595509 19.2438 0.595509 19.3058V19.7399C0.595509 19.8175 0.65506 19.864 0.714611 19.864H11.2849C11.3593 19.864 11.404 19.802 11.404 19.7399V19.3058C11.404 19.2283 11.3444 19.1818 11.2849 19.1818H0.714611Z" fill="#131313"/>
<path d="M6.00059 14.7324C5.37531 16.5929 3.8121 16.4999 1.07275 16.4378V18.872H11.0475V16.4223C8.24864 16.4999 6.62588 16.6394 6.00059 14.7324Z" fill="#F6EAC9"/>
<path d="M11.0631 19.1972H1.08828C0.924517 19.1972 0.790527 19.0577 0.790527 18.8871V16.453C0.790527 16.3755 0.820303 16.2825 0.879854 16.2359C0.939405 16.1739 1.01384 16.1429 1.08828 16.1429H1.34137C4.08072 16.2049 5.21218 16.1739 5.71837 14.6391C5.76303 14.515 5.86724 14.4375 6.00123 14.4375C6.13522 14.4375 6.23944 14.515 6.2841 14.6391C6.79028 16.1739 7.92175 16.2049 10.6462 16.1429L11.0333 16.1274C11.1077 16.1274 11.1971 16.1584 11.2417 16.2204C11.3013 16.2825 11.331 16.36 11.331 16.4375V18.8871C11.3608 19.0577 11.2268 19.1972 11.0631 19.1972ZM1.38604 18.577H10.7653V16.7631H10.676C8.39816 16.8251 6.82006 16.8561 6.01612 15.4763C5.21218 16.8406 3.63408 16.8096 1.38604 16.7631V18.577Z" fill="#131313"/>
<path d="M10.6456 14.2515C9.93095 12.5461 8.39752 11.3678 6.62588 11.1662V9.44531H5.5093V11.1662C3.73766 11.3833 2.20422 12.5616 1.48961 14.2515C1.22163 14.9027 1.07275 15.6004 1.07275 16.3135V16.4376C3.8121 16.4996 5.37531 16.6081 6.00059 14.7321C6.62588 16.6236 8.23375 16.4996 11.0475 16.4221V16.3135C11.0475 15.6004 10.9135 14.9027 10.6456 14.2515Z" fill="#D9EFFF"/>
<path d="M2.54605 16.7635C2.17386 16.7635 1.757 16.748 1.34015 16.748H1.07217C0.908404 16.748 0.774414 16.6085 0.774414 16.4379V16.3139C0.774414 15.5542 0.923291 14.8255 1.20616 14.1279C1.93566 12.4224 3.45421 11.1976 5.21096 10.8876V9.43019C5.21096 9.25965 5.34495 9.12012 5.50871 9.12012H6.62529C6.78906 9.12012 6.92305 9.25965 6.92305 9.43019V10.8876C8.6798 11.1976 10.1983 12.4069 10.913 14.1279C11.2107 14.8255 11.3596 15.5542 11.3596 16.3139V16.4224C11.3596 16.593 11.2256 16.7325 11.0618 16.7325L10.6748 16.748C8.41182 16.81 6.81883 16.841 6.01489 15.4612C5.35983 16.5775 4.1837 16.7635 2.54605 16.7635ZM1.38481 16.1279C4.09438 16.1899 5.22585 16.1589 5.73203 14.624C5.77669 14.5 5.88091 14.4224 6.01489 14.4069C6.14888 14.4069 6.2531 14.4845 6.29776 14.6085C6.80394 16.1434 7.93541 16.1744 10.6748 16.1124H10.7641C10.7343 15.5077 10.6152 14.9186 10.377 14.3759C9.69216 12.779 8.24805 11.6628 6.58063 11.4767C6.43175 11.4612 6.31265 11.3217 6.31265 11.1666V9.75578H5.80647V11.1666C5.80647 11.3217 5.68737 11.4612 5.53849 11.4767C3.88595 11.6628 2.42695 12.779 1.757 14.3759C1.53369 14.9341 1.3997 15.5232 1.38481 16.1279Z" fill="#131313"/>
<path d="M1.99502 18.0348C1.83126 18.0348 1.69727 17.8953 1.69727 17.7247V16.5619C1.69727 14.0348 3.66245 11.9883 6.08915 11.9883C6.25291 11.9883 6.3869 12.1278 6.3869 12.2984C6.3869 12.4689 6.25291 12.6084 6.08915 12.6084C3.98998 12.6084 2.29278 14.3759 2.29278 16.5619V17.7247C2.29278 17.8953 2.15879 18.0348 1.99502 18.0348Z" fill="#131313"/>
<path d="M6.07468 9.87983C8.05475 9.87983 9.85616 8.63952 10.6452 6.74805H1.48926C2.27831 8.65502 4.07972 9.87983 6.07468 9.87983Z" fill="#F6EAC9"/>
<path d="M6.05857 10.1894C3.9594 10.1894 2.05377 8.88711 1.20517 6.87161C1.16051 6.77859 1.17539 6.67006 1.23494 6.57704C1.29449 6.48401 1.38382 6.4375 1.48804 6.4375H10.644C10.7482 6.4375 10.8375 6.48401 10.8971 6.57704C10.9566 6.67006 10.9566 6.77859 10.9269 6.87161C10.0634 8.88711 8.17263 10.1894 6.05857 10.1894ZM1.96444 7.05765C2.78327 8.59254 4.34648 9.55378 6.05857 9.56928C7.77066 9.56928 9.33387 8.59254 10.1527 7.05765H1.96444Z" fill="#131313"/>
<path d="M6.31289 8.88745C6.14913 8.88745 6.01514 8.74791 6.01514 8.57737C6.01514 8.40683 6.14913 8.26729 6.31289 8.26729C8.12919 8.26729 9.60308 6.73241 9.60308 4.84093V3.29055C9.60308 3.12 9.73707 2.98047 9.90084 2.98047C10.0646 2.98047 10.1986 3.12 10.1986 3.29055V4.84093C10.1986 7.07349 8.45673 8.88745 6.31289 8.88745Z" fill="#131313"/>
</svg>
