<svg width="20" height="21" viewBox="0 0 20 21" fill="none" xmlns="http://www.w3.org/2000/svg">
<path d="M9.96854 17.9477C9.79613 17.9477 9.65507 17.8077 9.65507 17.6365V15.1306C9.65507 14.9594 9.79613 14.8193 9.96854 14.8193C10.141 14.8193 10.282 14.9594 10.282 15.1306V17.6365C10.282 17.8077 10.141 17.9477 9.96854 17.9477ZM8.84005 20.5003H6.56738C6.39497 20.5003 6.25391 20.3602 6.25391 20.189C6.25391 20.0178 6.39497 19.8777 6.56738 19.8777H8.84005C9.01246 19.8777 9.15352 20.0178 9.15352 20.189C9.15352 20.3602 9.01246 20.5003 8.84005 20.5003ZM13.3227 20.5003H11.05C10.8776 20.5003 10.7365 20.3602 10.7365 20.189C10.7365 20.0178 10.8776 19.8777 11.05 19.8777H13.3227C13.4951 19.8777 13.6362 20.0178 13.6362 20.189C13.6362 20.3602 13.4951 20.5003 13.3227 20.5003Z" fill="#131313"/>
<path d="M7.38183 20.4377C7.30346 20.4377 7.2251 20.4066 7.1624 20.3443C7.03701 20.2198 7.03701 20.0331 7.1624 19.9085L9.74854 17.3405C9.87393 17.2159 10.062 17.2159 10.1874 17.3405L12.7735 19.9085C12.8989 20.0331 12.8989 20.2198 12.7735 20.3443C12.6482 20.4689 12.4601 20.4689 12.3347 20.3443L9.96797 17.9942L7.60126 20.3443C7.53857 20.4066 7.4602 20.4377 7.38183 20.4377Z" fill="#131313"/>
<path d="M0.752337 0.811523H19.2472C19.4979 0.811523 19.686 1.01386 19.686 1.24732V14.6792C19.686 14.9283 19.4823 15.115 19.2472 15.115H0.752337C0.517233 15.1306 0.313477 14.9283 0.313477 14.6948V1.24732C0.313477 1.01386 0.517233 0.811523 0.752337 0.811523Z" fill="#7CB0F1"/>
<path d="M19.2472 15.4416H0.752332C0.344819 15.4416 0 15.0992 0 14.6946V1.24708C0 0.842412 0.344819 0.5 0.752332 0.5H19.2472C19.6703 0.5 19.9995 0.842412 19.9995 1.24708V14.679C20.0152 15.0992 19.6703 15.4416 19.2472 15.4416ZM0.752332 1.12257C0.689637 1.12257 0.626943 1.18482 0.626943 1.24708V14.679C0.626943 14.7568 0.689637 14.8191 0.752332 14.8191H19.2472C19.3255 14.8191 19.3725 14.7568 19.3725 14.6946V1.24708C19.3725 1.16926 19.3098 1.12257 19.2472 1.12257H0.752332Z" fill="#131313"/>
<path d="M1.45801 2.00977H18.4952V13.9475H1.45801V2.00977Z" fill="#EBF4FF"/>
<path d="M18.4952 14.243H1.458C1.28559 14.243 1.14453 14.1029 1.14453 13.9317V2.00953C1.14453 1.83832 1.28559 1.69824 1.458 1.69824H18.4952C18.6676 1.69824 18.8087 1.83832 18.8087 2.00953V13.9473C18.8087 14.1029 18.6676 14.243 18.4952 14.243ZM1.77147 13.6204H18.1817V2.32081H1.77147V13.6204Z" fill="#131313"/>
<path d="M17.2409 11.7376H14.0748C13.9024 11.7376 13.7613 11.5975 13.7613 11.4263C13.7613 11.2551 13.9024 11.115 14.0748 11.115H17.2409C17.4133 11.115 17.5543 11.2551 17.5543 11.4263C17.5543 11.5975 17.4133 11.7376 17.2409 11.7376ZM15.2503 13.0761H14.0748C13.9024 13.0761 13.7613 12.936 13.7613 12.7648C13.7613 12.5936 13.9024 12.4535 14.0748 12.4535H15.2503C15.4227 12.4535 15.5638 12.5936 15.5638 12.7648C15.5638 12.936 15.4227 13.0761 15.2503 13.0761ZM9.27869 11.0527C9.20032 11.0527 9.12195 11.0216 9.05926 10.9594L4.84306 6.78816C4.71768 6.66364 4.71768 6.47687 4.84306 6.35236C4.96845 6.22785 5.15654 6.22785 5.28193 6.35236L9.48244 10.5236C9.60783 10.6481 9.60783 10.8348 9.48244 10.9594C9.43542 11.0372 9.35706 11.0527 9.27869 11.0527ZM9.96833 11.0061C9.9213 11.0061 9.85861 10.9905 9.81159 10.9594C9.65485 10.8815 9.60783 10.6792 9.6862 10.5391L12.8523 4.96715C12.9306 4.8115 13.1344 4.76481 13.2755 4.84263C13.4322 4.92045 13.4792 5.12279 13.4008 5.26287L10.2504 10.8504C10.1878 10.9438 10.078 11.0061 9.96833 11.0061Z" fill="#131313"/>
<path d="M5.58007 11.6128C5.5017 11.6128 5.42334 11.5817 5.36064 11.5194C5.23525 11.3949 5.23525 11.1926 5.36064 11.0836L9.34173 7.2237C9.46712 7.09919 9.67088 7.09919 9.78059 7.2237C9.90598 7.34821 9.90598 7.55055 9.78059 7.6595L5.7995 11.5194C5.73681 11.5817 5.65844 11.6128 5.58007 11.6128ZM14.7021 7.36378H10.5486C10.3762 7.36378 10.2351 7.2237 10.2351 7.05249C10.2351 6.88129 10.3762 6.74121 10.5486 6.74121H14.6864C14.8588 6.74121 14.9999 6.88129 14.9999 7.05249C14.9999 7.2237 14.8745 7.36378 14.7021 7.36378Z" fill="#131313"/>
<path d="M4.05957 6.18134C4.05957 6.33408 4.12067 6.48055 4.22943 6.58855C4.33818 6.69655 4.48569 6.75722 4.63949 6.75722C4.7933 6.75722 4.9408 6.69655 5.04956 6.58855C5.15832 6.48055 5.21941 6.33408 5.21941 6.18134C5.21941 6.02861 5.15832 5.88214 5.04956 5.77414C4.9408 5.66614 4.7933 5.60547 4.63949 5.60547C4.48569 5.60547 4.33818 5.66614 4.22943 5.77414C4.12067 5.88214 4.05957 6.02861 4.05957 6.18134Z" fill="#EBF4FF"/>
<path d="M4.63949 7.06826C4.15361 7.06826 3.74609 6.67916 3.74609 6.1811C3.74609 5.69861 4.13793 5.29395 4.63949 5.29395C5.12537 5.29395 5.53288 5.68305 5.53288 6.1811C5.53288 6.67916 5.14104 7.06826 4.63949 7.06826ZM4.63949 5.93208C4.49843 5.93208 4.37304 6.04103 4.37304 6.19667C4.37304 6.33675 4.48275 6.46126 4.63949 6.46126C4.78055 6.46126 4.90594 6.35231 4.90594 6.19667C4.90594 6.04103 4.79622 5.93208 4.63949 5.93208Z" fill="#131313"/>
<path d="M9.0752 11.1618C9.0752 11.2374 9.0902 11.3123 9.11934 11.3822C9.14848 11.4521 9.1912 11.5155 9.24505 11.569C9.2989 11.6225 9.36283 11.6649 9.43319 11.6939C9.50355 11.7228 9.57896 11.7377 9.65512 11.7377C9.73127 11.7377 9.80669 11.7228 9.87704 11.6939C9.9474 11.6649 10.0113 11.6225 10.0652 11.569C10.119 11.5155 10.1618 11.4521 10.1909 11.3822C10.22 11.3123 10.235 11.2374 10.235 11.1618C10.235 11.0862 10.22 11.0113 10.1909 10.9414C10.1618 10.8716 10.119 10.8081 10.0652 10.7546C10.0113 10.7011 9.9474 10.6587 9.87704 10.6298C9.80669 10.6008 9.73127 10.5859 9.65512 10.5859C9.57896 10.5859 9.50355 10.6008 9.43319 10.6298C9.36283 10.6587 9.2989 10.7011 9.24505 10.7546C9.1912 10.8081 9.14848 10.8716 9.11934 10.9414C9.0902 11.0113 9.0752 11.0862 9.0752 11.1618Z" fill="#EBF4FF"/>
<path d="M9.65511 12.0487C9.16923 12.0487 8.76172 11.6596 8.76172 11.1616C8.76172 10.6635 9.15356 10.2744 9.65511 10.2744C10.141 10.2744 10.5485 10.6635 10.5485 11.1616C10.5485 11.6596 10.1567 12.0487 9.65511 12.0487ZM9.65511 10.9125C9.51405 10.9125 9.38866 11.0215 9.38866 11.1771C9.38866 11.3328 9.49838 11.4417 9.65511 11.4417C9.79618 11.4417 9.92156 11.3328 9.92156 11.1771C9.92156 11.0215 9.81185 10.9125 9.65511 10.9125Z" fill="#131313"/>
<path d="M9.4043 7.03681C9.4043 7.18954 9.4654 7.33602 9.57415 7.44402C9.68291 7.55202 9.83041 7.61269 9.98422 7.61269C10.138 7.61269 10.2855 7.55202 10.3943 7.44402C10.503 7.33602 10.5641 7.18954 10.5641 7.03681C10.5641 6.88408 10.503 6.7376 10.3943 6.62961C10.2855 6.52161 10.138 6.46094 9.98422 6.46094C9.83041 6.46094 9.68291 6.52161 9.57415 6.62961C9.4654 6.7376 9.4043 6.88408 9.4043 7.03681Z" fill="#EBF4FF"/>
<path d="M9.98421 7.92373C9.49833 7.92373 9.09082 7.53463 9.09082 7.03657C9.09082 6.55408 9.48266 6.14941 9.98421 6.14941C10.4858 6.14941 10.8776 6.53852 10.8776 7.03657C10.8619 7.53463 10.4701 7.92373 9.98421 7.92373ZM9.98421 6.78755C9.84315 6.78755 9.71776 6.8965 9.71776 7.05214C9.71776 7.19222 9.82748 7.31673 9.98421 7.31673C10.1409 7.31673 10.2507 7.20778 10.2507 7.05214C10.235 6.8965 10.1253 6.78755 9.98421 6.78755Z" fill="#131313"/>
<path d="M14.6709 7.03681C14.6709 7.18954 14.732 7.33602 14.8408 7.44402C14.9495 7.55202 15.097 7.61269 15.2508 7.61269C15.4046 7.61269 15.5521 7.55202 15.6609 7.44402C15.7696 7.33602 15.8307 7.18954 15.8307 7.03681C15.8307 6.88408 15.7696 6.7376 15.6609 6.62961C15.5521 6.52161 15.4046 6.46094 15.2508 6.46094C15.097 6.46094 14.9495 6.52161 14.8408 6.62961C14.732 6.7376 14.6709 6.88408 14.6709 7.03681Z" fill="#EBF4FF"/>
<path d="M15.2508 7.92373C14.7649 7.92373 14.3574 7.53463 14.3574 7.03657C14.3574 6.55408 14.7493 6.14941 15.2508 6.14941C15.7524 6.14941 16.1442 6.53852 16.1442 7.03657C16.1442 7.53463 15.7524 7.92373 15.2508 7.92373ZM15.2508 6.78755C15.1098 6.78755 14.9844 6.8965 14.9844 7.05214C14.9844 7.19222 15.0941 7.31673 15.2508 7.31673C15.4076 7.31673 15.5173 7.19222 15.5173 7.05214C15.5173 6.8965 15.3919 6.78755 15.2508 6.78755Z" fill="#131313"/>
<path d="M12.79 4.54658C12.79 4.69931 12.8511 4.84579 12.9599 4.95378C13.0687 5.06178 13.2162 5.12245 13.37 5.12245C13.5238 5.12245 13.6713 5.06178 13.78 4.95378C13.8888 4.84579 13.9499 4.69931 13.9499 4.54658C13.9499 4.39385 13.8888 4.24737 13.78 4.13937C13.6713 4.03138 13.5238 3.9707 13.37 3.9707C13.2162 3.9707 13.0687 4.03138 12.9599 4.13937C12.8511 4.24737 12.79 4.39385 12.79 4.54658Z" fill="#EBF4FF"/>
<path d="M13.37 5.4335C12.8841 5.4335 12.4766 5.04439 12.4766 4.54634C12.4766 4.04828 12.8684 3.65918 13.37 3.65918C13.8715 3.65918 14.2634 4.06385 14.2634 4.54634C14.2634 5.02883 13.8715 5.4335 13.37 5.4335ZM13.37 4.29731C13.2289 4.29731 13.1035 4.40626 13.1035 4.5619C13.1035 4.71755 13.2132 4.82649 13.37 4.82649C13.5267 4.82649 13.6364 4.70198 13.6364 4.54634C13.6364 4.3907 13.5267 4.29731 13.37 4.29731Z" fill="#131313"/>
<path d="M4.63965 11.737C4.63965 11.8897 4.70075 12.0362 4.8095 12.1442C4.91826 12.2522 5.06577 12.3129 5.21957 12.3129C5.37338 12.3129 5.52088 12.2522 5.62964 12.1442C5.73839 12.0362 5.79949 11.8897 5.79949 11.737C5.79949 11.5843 5.73839 11.4378 5.62964 11.3298C5.52088 11.2218 5.37338 11.1611 5.21957 11.1611C5.06577 11.1611 4.91826 11.2218 4.8095 11.3298C4.70075 11.4378 4.63965 11.5843 4.63965 11.737Z" fill="#EBF4FF"/>
<path d="M5.21957 12.6249C4.73368 12.6249 4.32617 12.2358 4.32617 11.7377C4.32617 11.2553 4.71801 10.8506 5.21957 10.8506C5.72112 10.8506 6.11296 11.2397 6.11296 11.7377C6.11296 12.2202 5.70545 12.6249 5.21957 12.6249ZM5.21957 11.4887C5.0785 11.4887 4.95312 11.5977 4.95312 11.7533C4.95312 11.909 5.06283 12.0179 5.21957 12.0179C5.3763 12.0179 5.48602 11.909 5.48602 11.7533C5.48602 11.5977 5.36063 11.4887 5.21957 11.4887Z" fill="#131313"/>
</svg>
