<svg width="20" height="21" viewBox="0 0 20 21" fill="none" xmlns="http://www.w3.org/2000/svg">
<path d="M18.1754 12.758L17.292 11.811C17.2765 11.7943 17.261 11.7777 17.23 11.7611C18.3769 10.299 18.2839 8.13909 17.0285 6.7933L14.2544 3.81926C13.1696 2.67284 11.5113 2.40701 10.1785 3.20451C8.76818 2.22424 6.92393 2.42362 5.7306 3.68634L3.32843 6.24501C1.94912 7.72372 1.94912 10.1329 3.32843 11.6116L8.16376 16.7954C8.6442 17.3104 9.74454 18.623 10.039 18.9221L10.9224 19.8691C11.2788 20.2512 11.8523 20.2512 12.2087 19.8691C12.5652 19.487 12.5652 18.8722 12.2087 18.4901L11.9607 18.2242C11.7903 18.0415 11.8058 17.759 11.9607 17.5763C12.1622 17.3935 12.4257 17.4932 12.6271 17.7092L13.0921 18.2076C13.4485 18.5898 14.022 18.5898 14.3784 18.2076C14.7349 17.8255 14.7349 17.2107 14.3784 16.8286L13.8515 16.2637C13.6655 16.0809 13.65 15.7653 13.8205 15.5493C13.9445 15.3499 14.2699 15.3333 14.5334 15.5991L15.0138 16.1142C15.3703 16.4963 15.9437 16.4963 16.3001 16.1142C16.6566 15.732 16.6566 15.1173 16.3001 14.7351C16.1142 14.5524 15.9282 14.3696 15.7577 14.1702C15.6182 13.9709 15.4943 13.8213 15.6492 13.5887C15.7267 13.4724 16.0677 13.2897 16.2536 13.4724C16.4086 13.622 16.8581 14.1204 16.8581 14.1204C17.2145 14.5025 17.7879 14.5025 18.1444 14.1204C18.5008 13.7383 18.5318 13.1401 18.1754 12.758Z" fill="#FFD7C4"/>
<path d="M11.5573 20.4832C11.2473 20.4832 10.9374 20.3503 10.6894 20.101L9.80604 19.154C9.68206 19.0211 9.41859 18.722 9.12413 18.3731C8.72119 17.9079 8.22526 17.3264 7.9463 17.0273L3.11096 11.8435C1.62317 10.2319 1.62317 7.62336 3.11096 6.01173L5.51313 3.43645C6.75296 2.10727 8.70569 1.85805 10.1935 2.80509C11.6193 2.07404 13.3551 2.3731 14.4864 3.56937L17.2605 6.56002C18.5623 7.97227 18.7173 10.1488 17.648 11.7272L17.8494 11.9432L18.3764 12.5081C18.8568 13.0232 18.8568 13.8539 18.3764 14.3523C17.8959 14.8674 17.121 14.8674 16.6561 14.3523L16.0672 13.721C16.0517 13.721 15.9432 13.7542 15.9122 13.7874V13.804C15.9277 13.8373 15.9742 13.9037 16.0052 13.9536C16.1602 14.1363 16.3306 14.3191 16.5011 14.4686L16.5166 14.4853C16.9971 15.0003 16.9971 15.831 16.5166 16.3295C16.0362 16.8445 15.2613 16.8445 14.7964 16.3295L14.3159 15.8144C14.1919 15.6815 14.0835 15.6981 14.068 15.7147V15.7978C14.006 15.8643 14.006 15.9806 14.0835 16.047L14.6104 16.6119C15.0908 17.127 15.0908 17.9577 14.6104 18.4562C14.3779 18.7054 14.068 18.8383 13.7425 18.8383C13.417 18.8383 13.1071 18.7054 12.8746 18.4562L12.4097 17.9577C12.3167 17.858 12.2237 17.8082 12.1772 17.8414C12.1617 17.8747 12.1462 17.9079 12.1462 17.9245C12.1462 17.9411 12.1462 17.9743 12.1772 18.0076L12.4252 18.2734C12.9056 18.7885 12.9056 19.6192 12.4252 20.1177C12.1772 20.3669 11.8673 20.4832 11.5573 20.4832ZM8.24076 2.90478C7.40387 2.90478 6.56699 3.25368 5.94707 3.91827L3.5604 6.47695C2.30507 7.82274 2.30507 10.0159 3.5604 11.3783L8.39573 16.5621C8.69019 16.8778 9.17063 17.4261 9.58907 17.9245C9.88353 18.2734 10.147 18.5725 10.2555 18.6888L11.1389 19.6358C11.3713 19.885 11.7588 19.885 11.9912 19.6358C12.0997 19.5195 12.1617 19.3534 12.1617 19.1872C12.1617 19.0211 12.0997 18.8549 11.9912 18.7386L11.7433 18.4728C11.6038 18.3233 11.5263 18.1239 11.5263 17.9079C11.5263 17.6919 11.6038 17.4925 11.7433 17.3596L11.7588 17.343C12.0532 17.0605 12.5027 17.127 12.8436 17.4925L13.3086 17.991C13.541 18.2402 13.9285 18.2402 14.1609 17.991C14.3934 17.7417 14.3934 17.3264 14.1609 17.0772L13.634 16.5123C13.3396 16.2132 13.3086 15.6981 13.5875 15.3658C13.696 15.2163 13.8665 15.1166 14.068 15.1C14.3159 15.0834 14.5639 15.1831 14.7654 15.3991L15.2458 15.9141C15.4783 16.1633 15.8657 16.1633 16.0982 15.9141C16.3306 15.6649 16.3306 15.2661 16.0982 15.0169C15.8967 14.8342 15.7107 14.6348 15.5402 14.4354L15.5248 14.4188C15.3698 14.2194 15.1218 13.8705 15.4163 13.4385C15.5248 13.2724 15.7727 13.1395 15.9897 13.1062C16.1757 13.0896 16.3616 13.1395 16.4856 13.2724L17.1055 13.937C17.338 14.1862 17.7254 14.1862 17.9579 13.937C18.0664 13.8207 18.1284 13.6545 18.1284 13.4884C18.1284 13.3388 18.0819 13.1893 17.9889 13.0896L17.0745 12.1093C17.059 12.1093 17.0435 12.0927 17.0435 12.0761L16.8111 11.8601L17.0125 11.6109C18.0664 10.2651 17.9889 8.32118 16.8266 7.09169L14.037 4.05119C13.0606 3.00446 11.5263 2.77186 10.3175 3.48629L10.147 3.58598L9.99201 3.46968C9.46509 3.08754 8.84517 2.90478 8.24076 2.90478Z" fill="black"/>
<path d="M0.429806 6.79256L5.86956 0.960782C6.00904 0.81125 6.22601 0.81125 6.36549 0.960782L7.14038 1.79152C7.27986 1.94105 7.27986 2.17366 7.14038 2.32319L1.70063 8.15497C1.56115 8.3045 1.34418 8.3045 1.2047 8.15497L0.429806 7.32423C0.290325 7.1747 0.290325 6.94209 0.429806 6.79256Z" fill="white"/>
<path d="M1.43743 8.60383C1.26695 8.60383 1.09647 8.53737 0.972491 8.38784L0.197598 7.5571C-0.0658659 7.27465 -0.0658659 6.82605 0.197598 6.5436L5.65285 0.72844C5.91631 0.445989 6.33475 0.445989 6.59822 0.72844L7.37311 1.55918C7.63657 1.84163 7.63657 2.29023 7.37311 2.57268L1.91786 8.38784C1.77838 8.52075 1.6079 8.60383 1.43743 8.60383ZM0.647036 7.02543C0.631538 7.04204 0.631538 7.07527 0.647036 7.09189L1.42193 7.92262C1.43743 7.93924 1.46842 7.93924 1.48392 7.92262L6.92367 2.07423C6.93917 2.05762 6.93917 2.02439 6.92367 2.00778L6.14878 1.17704C6.13328 1.16042 6.10228 1.16042 6.08679 1.17704L0.647036 7.02543Z" fill="black"/>
<path d="M14.1303 0.960998L19.5701 6.79277C19.7095 6.94231 19.7095 7.17491 19.5701 7.32444L18.7952 8.15518C18.6557 8.30472 18.4387 8.30472 18.2992 8.15518L12.8595 2.32341C12.72 2.17387 12.72 1.92465 12.8595 1.77512L13.6344 0.944383C13.7739 0.811465 13.9908 0.811465 14.1303 0.960998Z" fill="white"/>
<path d="M18.5623 8.60384C18.3918 8.60384 18.2213 8.53738 18.0973 8.38785L12.6421 2.55607C12.3786 2.27362 12.3786 1.82503 12.6421 1.54258L13.417 0.711838C13.6804 0.429387 14.0989 0.429387 14.3623 0.711838L19.8021 6.54361C20.0656 6.82606 20.0656 7.27466 19.8021 7.55711L19.0272 8.38785C18.9032 8.52077 18.7327 8.60384 18.5623 8.60384ZM13.8819 1.17705C13.8664 1.17705 13.8664 1.17705 13.8509 1.19367L13.076 2.0244C13.0605 2.04102 13.0605 2.07425 13.076 2.09086L18.5158 7.92264C18.5313 7.93925 18.5623 7.93925 18.5778 7.92264L19.3526 7.0919C19.3681 7.07529 19.3681 7.04206 19.3526 7.02544L13.9129 1.19367C13.8974 1.17705 13.8974 1.17705 13.8819 1.17705ZM12.859 14.8011C12.7816 14.8011 12.7041 14.7679 12.6421 14.7015L11.6347 13.6215C11.5107 13.4886 11.5107 13.2892 11.6347 13.1563C11.7587 13.0234 11.9447 13.0234 12.0687 13.1563L13.076 14.2362C13.2 14.3692 13.2 14.5685 13.076 14.7015C13.014 14.7679 12.9365 14.8011 12.859 14.8011ZM14.7188 12.8074C14.6413 12.8074 14.5638 12.7741 14.5018 12.7077L13.4945 11.6277C13.3705 11.4948 13.3705 11.2954 13.4945 11.1625C13.6184 11.0296 13.8044 11.0296 13.9284 11.1625L14.9358 12.2425C15.0597 12.3754 15.0597 12.5748 14.9358 12.7077C14.8738 12.7741 14.7963 12.8074 14.7188 12.8074ZM10.9218 16.878C10.8443 16.878 10.7668 16.8448 10.7048 16.7783L9.69748 15.6983C9.5735 15.5654 9.5735 15.366 9.69748 15.2331C9.82146 15.1002 10.0074 15.1002 10.1314 15.2331L11.1388 16.3131C11.2628 16.446 11.2628 16.6454 11.1388 16.7783C11.0768 16.8448 10.9993 16.878 10.9218 16.878Z" fill="black"/>
<path d="M5.11087 11.8268C5.46732 12.2089 5.46732 12.8237 5.11087 13.2058L4.22749 14.1363C3.87104 14.5184 3.29762 14.5184 2.94117 14.1363C2.58472 13.7541 2.58472 13.1394 2.94117 12.7572L3.82454 11.8102C4.181 11.4447 4.75442 11.4447 5.11087 11.8268Z" fill="#FFE2D1"/>
<path d="M3.59152 14.7511C3.28156 14.7511 2.9716 14.6182 2.72364 14.369C2.49117 14.1198 2.36719 13.7875 2.36719 13.4386C2.36719 13.0897 2.49117 12.7574 2.72364 12.5081L3.60702 11.5611C4.08745 11.046 4.86234 11.046 5.32728 11.5611C5.55975 11.8103 5.68373 12.1426 5.68373 12.4915C5.68373 12.8404 5.55975 13.1727 5.32728 13.4219L4.4439 14.369C4.21143 14.6348 3.90148 14.7511 3.59152 14.7511ZM4.4749 11.8602C4.31992 11.8602 4.16494 11.9266 4.05645 12.0429L3.17308 12.99C3.06459 13.1063 3.0026 13.2724 3.0026 13.4386C3.0026 13.6047 3.06459 13.7709 3.17308 13.8872C3.40554 14.1364 3.79299 14.1364 4.02546 13.8872L4.90884 12.9401C5.01732 12.8238 5.07931 12.6577 5.07931 12.4915C5.07931 12.3254 5.01732 12.1592 4.90884 12.0429C4.76936 11.9266 4.61438 11.8602 4.4749 11.8602Z" fill="black"/>
<path d="M6.97024 13.8209C7.32669 14.2031 7.32669 14.8178 6.97024 15.2L6.08686 16.1304C5.73041 16.5125 5.15699 16.5125 4.80054 16.1304C4.44409 15.7483 4.44409 15.1335 4.80054 14.7514L5.68392 13.8043C6.04037 13.4388 6.61379 13.4388 6.97024 13.8209Z" fill="#FFE2D1"/>
<path d="M5.45174 16.745C5.12629 16.745 4.81633 16.6121 4.58386 16.3629L4.56837 16.3463C4.3359 16.097 4.21191 15.7814 4.21191 15.4325C4.21191 15.0835 4.3359 14.7513 4.56837 14.502L5.45174 13.555C5.68421 13.3058 5.99417 13.1729 6.31962 13.1729C6.64508 13.1729 6.95504 13.3058 7.1875 13.555C7.41997 13.8042 7.54396 14.1365 7.54396 14.4854C7.54396 14.8343 7.41997 15.1666 7.1875 15.4158L6.30413 16.3629C6.08716 16.6121 5.7772 16.745 5.45174 16.745ZM5.0333 15.9143C5.26577 16.1469 5.65322 16.1469 5.87019 15.9143L6.75356 14.9672C6.86205 14.8509 6.92404 14.6848 6.92404 14.5186C6.92404 14.3525 6.86205 14.1864 6.75356 14.07C6.5211 13.8208 6.13365 13.8208 5.90118 14.07L5.0178 15.0171C4.90932 15.1334 4.84733 15.2995 4.84733 15.4657C4.84733 15.6318 4.90932 15.7814 5.0333 15.9143Z" fill="black"/>
<path d="M8.81442 15.7983C9.17087 16.1805 9.17087 16.7952 8.81442 17.1773L7.74507 18.3238C7.38862 18.7059 6.8152 18.7059 6.45874 18.3238C6.10229 17.9416 6.10229 17.3269 6.45874 16.9447L7.5281 15.7983C7.88455 15.4162 8.45797 15.4162 8.81442 15.7983Z" fill="#FFE2D1"/>
<path d="M7.11007 18.9385C6.78462 18.9385 6.47466 18.8056 6.24219 18.5564C6.00973 18.3072 5.88574 17.9749 5.88574 17.626C5.88574 17.2771 6.00973 16.9448 6.24219 16.6955L7.31155 15.5491C7.54401 15.2999 7.85397 15.167 8.17943 15.167C8.50488 15.167 8.81484 15.2999 9.04731 15.5491C9.27977 15.7984 9.40376 16.1306 9.40376 16.4796C9.40376 16.8285 9.27977 17.1608 9.04731 17.41L7.97795 18.5564C7.72999 18.8056 7.43553 18.9385 7.11007 18.9385ZM8.17943 15.8482C8.02445 15.8482 7.86947 15.9147 7.76098 16.031L6.69163 17.1774C6.58315 17.2937 6.52115 17.4598 6.52115 17.626C6.52115 17.7921 6.58315 17.9583 6.69163 18.0746C6.9241 18.3238 7.31155 18.3238 7.54401 18.0746L8.61337 16.9282C8.72185 16.8119 8.78384 16.6457 8.78384 16.4796C8.78384 16.3134 8.72185 16.1473 8.61337 16.031C8.48938 15.9147 8.3344 15.8482 8.17943 15.8482Z" fill="black"/>
<path d="M10.9688 17.4763C11.3252 17.8584 11.3252 18.4732 10.9688 18.8553L10.0234 19.8688C9.66694 20.251 9.09352 20.251 8.73706 19.8688C8.38061 19.4867 8.38061 18.8719 8.73706 18.4898L9.68243 17.4763C10.0389 17.1108 10.6123 17.1108 10.9688 17.4763Z" fill="#FFE2D1"/>
<path d="M9.37277 20.5C9.04731 20.5 8.73736 20.367 8.50489 20.1178C8.27242 19.8686 8.14844 19.5363 8.14844 19.1874C8.14844 18.8385 8.27242 18.5062 8.50489 18.257L9.45026 17.2435C9.68273 16.9942 9.99268 16.8613 10.3181 16.8613C10.6436 16.8613 10.9536 16.9942 11.186 17.2435C11.6665 17.7585 11.6665 18.5893 11.186 19.0877L10.2406 20.1178C10.0082 20.3504 9.69822 20.5 9.37277 20.5ZM10.3181 17.5259C10.1632 17.5259 10.0082 17.5924 9.8997 17.7087L8.95433 18.7222C8.84584 18.8385 8.78385 19.0046 8.78385 19.1708C8.78385 19.3369 8.84584 19.5031 8.95433 19.6194C9.18679 19.8686 9.57424 19.8686 9.80671 19.6194L10.7521 18.6059C10.9845 18.3567 10.9845 17.9413 10.7521 17.6921C10.6281 17.5924 10.4886 17.5259 10.3181 17.5259Z" fill="black"/>
<path d="M17.2917 12.1597C17.2142 12.1597 17.1367 12.1265 17.0747 12.06L10.9221 5.66334L7.79153 9.01951C7.31109 9.53457 6.5362 9.53457 6.07126 9.01951C5.59083 8.50446 5.59083 7.67372 6.07126 7.17528L9.97672 2.98836C10.1007 2.85544 10.2867 2.85544 10.4107 2.98836C10.5346 3.12128 10.5346 3.32066 10.4107 3.45357L6.5052 7.64049C6.27273 7.88971 6.27273 8.30508 6.5052 8.5543C6.73767 8.80352 7.12512 8.80352 7.35759 8.5543L10.9221 4.73291L17.5087 11.5948C17.6327 11.7277 17.6327 11.9271 17.5087 12.06C17.4622 12.1265 17.3692 12.1597 17.2917 12.1597Z" fill="black"/>
</svg>
