<svg width="20" height="21" viewBox="0 0 20 21" fill="none" xmlns="http://www.w3.org/2000/svg">
<path d="M0.311523 11.7607C0.311523 12.8673 0.529317 13.9631 0.952469 14.9855C1.37562 16.0078 1.99584 16.9368 2.77773 17.7193C3.55961 18.5018 4.48784 19.1225 5.50942 19.546C6.531 19.9695 7.62592 20.1874 8.73167 20.1874C9.83742 20.1874 10.9323 19.9695 11.9539 19.546C12.9755 19.1225 13.9037 18.5018 14.6856 17.7193C15.4675 16.9368 16.0877 16.0078 16.5109 14.9855C16.934 13.9631 17.1518 12.8673 17.1518 11.7607C17.1518 10.6541 16.934 9.55831 16.5109 8.53594C16.0877 7.51356 15.4675 6.58461 14.6856 5.80211C13.9037 5.01962 12.9755 4.39891 11.9539 3.97543C10.9323 3.55195 9.83742 3.33398 8.73167 3.33398C7.62592 3.33398 6.531 3.55195 5.50942 3.97543C4.48784 4.39891 3.55961 5.01962 2.77773 5.80211C1.99584 6.58461 1.37562 7.51356 0.952469 8.53594C0.529317 9.55831 0.311523 10.6541 0.311523 11.7607Z" fill="white"/>
<path d="M8.732 20.5001C3.91381 20.5001 0 16.5832 0 11.7613C0 6.93932 3.91381 3.02246 8.732 3.02246C13.5502 3.02246 17.464 6.93932 17.464 11.7613C17.464 16.5832 13.5502 20.5001 8.732 20.5001ZM8.732 3.64666C4.25685 3.64666 0.623715 7.28263 0.623715 11.7613C0.623715 16.2399 4.25685 19.8759 8.732 19.8759C13.2072 19.8759 16.8403 16.2399 16.8403 11.7613C16.8403 7.28263 13.2072 3.64666 8.732 3.64666Z" fill="#191919"/>
<path d="M2.40137 11.7614C2.40137 12.5934 2.56512 13.4173 2.88326 14.186C3.20141 14.9546 3.66773 15.6531 4.25559 16.2414C4.84345 16.8297 5.54134 17.2964 6.30941 17.6148C7.07749 17.9332 7.90071 18.0971 8.73207 18.0971C9.56343 18.0971 10.3867 17.9332 11.1547 17.6148C11.9228 17.2964 12.6207 16.8297 13.2086 16.2414C13.7964 15.6531 14.2627 14.9546 14.5809 14.186C14.899 13.4173 15.0628 12.5934 15.0628 11.7614C15.0628 10.9294 14.899 10.1056 14.5809 9.33688C14.2627 8.5682 13.7964 7.86977 13.2086 7.28145C12.6207 6.69313 11.9228 6.22645 11.1547 5.90805C10.3867 5.58966 9.56343 5.42578 8.73207 5.42578C7.90071 5.42578 7.07749 5.58966 6.30941 5.90805C5.54134 6.22645 4.84345 6.69313 4.25559 7.28145C3.66773 7.86977 3.20141 8.5682 2.88326 9.33688C2.56512 10.1056 2.40137 10.9294 2.40137 11.7614Z" fill="#F86C6C"/>
<path d="M8.7324 18.4244C5.06808 18.4244 2.08984 15.4438 2.08984 11.7766C2.08984 8.10947 5.06808 5.12891 8.7324 5.12891C12.3967 5.12891 15.375 8.10947 15.375 11.7766C15.375 15.4438 12.3967 18.4244 8.7324 18.4244ZM8.7324 5.7375C5.41112 5.7375 2.71356 8.43717 2.71356 11.761C2.71356 15.0849 5.41112 17.7846 8.7324 17.7846C12.0537 17.7846 14.7512 15.0849 14.7512 11.761C14.7512 8.43717 12.0537 5.7375 8.7324 5.7375Z" fill="#191919"/>
<path d="M4.66211 11.7614C4.66211 12.8416 5.09088 13.8776 5.85411 14.6414C6.61733 15.4052 7.65249 15.8343 8.73185 15.8343C9.81121 15.8343 10.8464 15.4052 11.6096 14.6414C12.3728 13.8776 12.8016 12.8416 12.8016 11.7614C12.8016 10.6812 12.3728 9.64522 11.6096 8.88141C10.8464 8.11759 9.81121 7.68848 8.73185 7.68848C7.65249 7.68848 6.61733 8.11759 5.85411 8.88141C5.09088 9.64522 4.66211 10.6812 4.66211 11.7614Z" fill="white"/>
<path d="M8.73218 16.1616C6.31529 16.1616 4.35059 14.1954 4.35059 11.7766C4.35059 9.35782 6.31529 7.37598 8.73218 7.37598C11.1491 7.37598 13.1138 9.34221 13.1138 11.761C13.1138 14.1798 11.1491 16.1616 8.73218 16.1616ZM8.73218 8.00018C6.65833 8.00018 4.9743 9.68552 4.9743 11.761C4.9743 13.8365 6.65833 15.5218 8.73218 15.5218C10.806 15.5218 12.4901 13.8365 12.4901 11.761C12.4901 9.68552 10.806 8.00018 8.73218 8.00018Z" fill="#191919"/>
<path d="M6.75195 11.7611C6.75195 12.0214 6.80318 12.2791 6.90269 12.5196C7.00221 12.76 7.14808 12.9785 7.33197 13.1625C7.51586 13.3465 7.73416 13.4925 7.97442 13.5921C8.21468 13.6917 8.47219 13.743 8.73225 13.743C8.9923 13.743 9.24981 13.6917 9.49007 13.5921C9.73033 13.4925 9.94864 13.3465 10.1325 13.1625C10.3164 12.9785 10.4623 12.76 10.5618 12.5196C10.6613 12.2791 10.7125 12.0214 10.7125 11.7611C10.7125 11.2355 10.5039 10.7314 10.1325 10.3598C9.76115 9.9881 9.25745 9.7793 8.73225 9.7793C8.20704 9.7793 7.70335 9.9881 7.33197 10.3598C6.96059 10.7314 6.75195 11.2355 6.75195 11.7611Z" fill="#F86C6C"/>
<path d="M8.7316 14.0547C7.46858 14.0547 6.43945 13.0247 6.43945 11.7607C6.43945 10.4967 7.46858 9.4668 8.7316 9.4668C9.99463 9.4668 11.0238 10.4967 11.0238 11.7607C11.0238 13.0403 9.99463 14.0547 8.7316 14.0547ZM8.7316 10.1066C7.81163 10.1066 7.06317 10.8556 7.06317 11.7763C7.06317 12.697 7.81163 13.4305 8.7316 13.4305C9.65158 13.4305 10.4 12.6814 10.4 11.7607C10.4 10.84 9.65158 10.1066 8.7316 10.1066Z" fill="#191919"/>
<path d="M19.6782 2.74168L17.1522 5.25409L15.1875 5.30091L15.2343 3.33468L17.7603 0.822266L17.6824 2.81971L19.6782 2.74168Z" fill="#C2CDDC"/>
<path d="M15.2035 5.6128C15.1255 5.6128 15.0475 5.58159 14.9852 5.51917C14.9228 5.45675 14.8916 5.37873 14.8916 5.2851L14.9384 3.31886C14.9384 3.24084 14.9696 3.16281 15.0319 3.10039L17.558 0.587984C17.6515 0.494353 17.7919 0.478748 17.901 0.525564C18.0258 0.572379 18.0881 0.697219 18.0881 0.822059L18.0258 2.47619L19.6786 2.41377C19.8034 2.41377 19.9281 2.47619 19.9749 2.60103C20.0217 2.72587 20.0061 2.85071 19.9125 2.94434L17.3865 5.45675C17.3241 5.51917 17.2461 5.55038 17.1682 5.55038L15.2035 5.6128ZM15.5465 3.47491L15.5153 4.9886L17.0278 4.95739L18.899 3.08479L17.6983 3.1316C17.6048 3.1316 17.5268 3.10039 17.4644 3.03797C17.4021 2.97555 17.3709 2.89753 17.3709 2.8039L17.4176 1.60231L15.5465 3.47491Z" fill="#191919"/>
<path d="M8.88803 11.8396C8.81007 11.8396 8.7321 11.8084 8.66973 11.7459C8.54499 11.6211 8.54499 11.4338 8.66973 11.309L18.9298 1.0409C19.0546 0.916056 19.2417 0.916056 19.3664 1.0409C19.4912 1.16574 19.4912 1.353 19.3664 1.47784L9.10633 11.7459C9.04396 11.8084 8.96599 11.8396 8.88803 11.8396Z" fill="#191919"/>
</svg>
