<svg width="45" height="40" viewBox="0 0 45 40" fill="none" xmlns="http://www.w3.org/2000/svg">
<path d="M43.6646 4.41861C44.0351 4.60385 44.4856 4.45368 44.6708 4.0832C44.8561 3.71272 44.7059 3.26221 44.3354 3.07697L43.6646 4.41861ZM22.844 15.6229L22.3709 16.2048L22.844 15.6229ZM5.43779 39.5726C5.71194 39.8831 6.1859 39.9125 6.4964 39.6384L11.5563 35.1708C11.8668 34.8966 11.8963 34.4227 11.6222 34.1122C11.348 33.8017 10.874 33.7722 10.5635 34.0464L6.06581 38.0176L2.09461 33.5198C1.82046 33.2093 1.3465 33.1799 1.036 33.454C0.725494 33.7282 0.696026 34.2021 0.970181 34.5126L5.43779 39.5726ZM44 3.74779L44.3354 3.07697C37.0196 -0.580929 28.021 -0.449257 22.5574 2.10344C19.8303 3.37759 17.8036 5.35025 17.5457 7.93156C17.2884 10.5067 18.8303 13.3262 22.3709 16.2048L22.844 15.6229L23.3172 15.0409C19.9199 12.2789 18.8562 9.90306 19.0383 8.08068C19.2197 6.2645 20.6773 4.63752 23.1924 3.46243C28.2131 1.11666 36.7303 0.951454 43.6646 4.41861L44 3.74779ZM22.844 15.6229L22.3709 16.2048C24.89 18.2529 26.668 19.3446 27.8267 19.6961C28.3654 19.8594 29.0462 19.9471 29.5477 19.5298C30.0827 19.0846 30.037 18.3992 29.9332 17.9602C29.7097 17.0158 28.9146 15.7845 27.8515 14.6206C26.7654 13.4316 25.3139 12.219 23.6572 11.3369C22.0017 10.4555 20.1021 9.88428 18.141 10.0427C16.1607 10.2026 14.1896 11.1015 12.4129 13.0324C8.90763 16.8417 6.14367 24.6785 5.25145 39.0296L6 39.0762L6.74855 39.1227C7.63745 24.8252 10.3852 17.4513 13.5167 14.0481C15.0583 12.3727 16.6869 11.665 18.2618 11.5378C19.8559 11.4091 21.4671 11.8702 22.9523 12.661C24.4362 13.451 25.7553 14.55 26.744 15.6323C27.7556 16.7397 28.3395 17.7394 28.4735 18.3056C28.5483 18.6219 28.426 18.5117 28.5883 18.3767C28.7171 18.2696 28.729 18.4022 28.2621 18.2606C27.4096 18.0021 25.8293 17.0834 23.3172 15.0409L22.844 15.6229Z" fill="#4F4F4F"/>
</svg>
