<svg width="45" height="40" viewBox="0 0 45 40" fill="none" xmlns="http://www.w3.org/2000/svg">
<path d="M1.33541 4.41861C0.964926 4.60385 0.514422 4.45368 0.32918 4.0832C0.143938 3.71272 0.294106 3.26221 0.66459 3.07697L1.33541 4.41861ZM22.156 15.6229L22.6291 16.2048L22.156 15.6229ZM39.5622 39.5726C39.2881 39.8831 38.8141 39.9125 38.5036 39.6384L33.4437 35.1708C33.1332 34.8966 33.1037 34.4227 33.3778 34.1122C33.652 33.8017 34.126 33.7722 34.4365 34.0464L38.9342 38.0176L42.9054 33.5198C43.1795 33.2093 43.6535 33.1799 43.964 33.454C44.2745 33.7282 44.304 34.2021 44.0298 34.5126L39.5622 39.5726ZM1 3.74779L0.66459 3.07697C7.98039 -0.580929 16.979 -0.449257 22.4426 2.10344C25.1697 3.37759 27.1964 5.35025 27.4543 7.93156C27.7116 10.5067 26.1697 13.3262 22.6291 16.2048L22.156 15.6229L21.6828 15.0409C25.0801 12.2789 26.1438 9.90306 25.9617 8.08068C25.7803 6.2645 24.3227 4.63752 21.8076 3.46243C16.7869 1.11666 8.26972 0.951454 1.33541 4.41861L1 3.74779ZM22.156 15.6229L22.6291 16.2048C20.11 18.2529 18.332 19.3446 17.1733 19.6961C16.6346 19.8594 15.9538 19.9471 15.4523 19.5298C14.9173 19.0846 14.963 18.3992 15.0668 17.9602C15.2903 17.0158 16.0854 15.7845 17.1485 14.6206C18.2346 13.4316 19.6861 12.219 21.3428 11.3369C22.9983 10.4555 24.8979 9.88428 26.859 10.0427C28.8393 10.2026 30.8104 11.1015 32.5871 13.0324C36.0924 16.8417 38.8563 24.6785 39.7486 39.0296L39 39.0762L38.2514 39.1227C37.3625 24.8252 34.6148 17.4513 31.4833 14.0481C29.9417 12.3727 28.3131 11.665 26.7382 11.5378C25.1441 11.4091 23.5329 11.8702 22.0477 12.661C20.5638 13.451 19.2447 14.55 18.256 15.6323C17.2444 16.7397 16.6605 17.7394 16.5265 18.3056C16.4517 18.6219 16.574 18.5117 16.4117 18.3767C16.2829 18.2696 16.271 18.4022 16.7379 18.2606C17.5904 18.0021 19.1707 17.0834 21.6828 15.0409L22.156 15.6229Z" fill="#4F4F4F"/>
</svg>
